<?xml version="1.0" encoding="UTF-8"?><svg id="Layer_2" xmlns="http://www.w3.org/2000/svg" viewBox="0 0 1889.16 343.59"><defs><style>.cls-1{fill:#cffff0;stroke-width:0px;}</style></defs><g id="Layer_1-2"><path class="cls-1" d="m646.8,20.76c-78.55,0-134.92,46.92-134.92,125.82s55.28,131.28,132.73,131.28c54.18,0,114.55-23.27,121.82-90.55h0l-34.54-14.91h0s0,0,0,0h0c-6.91,40.73-42.55,63.27-81.82,63.27-53.82,0-93.82-33.46-93.82-89.1s38.91-85.09,89.82-85.09c33.82,0,73.46,17.09,84.73,55.28l36.73-14.18c-12-56-62.91-81.82-120.73-81.82Zm119.63,166.55c-11.64-4.73-22.9-9.82-34.53-14.91l34.53,14.91Z"/><path class="cls-1" d="m952.98,110.95c-15.64-17.46-38.55-27.28-63.64-27.28-45.09,0-84.73,31.64-84.73,96.01,0,60.37,42.55,95.64,89.1,95.64,23.64,0,45.1-9.09,59.64-27.27l2.55,21.82h38.55V88.04h-38.55c-.73,7.64-1.82,15.27-2.91,22.91Zm-51.64,126.55c-32.72,0-54.91-21.46-54.91-55.28,0-36,21.82-59.64,55.27-59.64,36.36,0,51.64,25.1,51.64,56.73s-16.73,58.18-52.01,58.18Z"/><path class="cls-1" d="m1083.44,136.77c0-12.73,21.09-20.72,42.91-20.72,24,0,49.82,8,58.55,29.82,10.19-4.73,20.37-9.09,30.55-13.46-12.36-33.82-49.09-49.82-88.36-49.82s-84.37,14.91-84.37,56.73c0,78.55,133.82,37.82,133.82,78.92,0,17.09-18.19,24.36-39.27,24.36-26.18,0-58.91-11.28-68.74-34.18l-33.09,14.91c15.27,43.28,64.36,53.82,99.64,53.82,40,0,82.55-19.64,82.55-61.45,0-78.55-134.18-37.1-134.18-78.92Z"/><path class="cls-1" d="m1375.82,84.05c-27.28,0-56,10.18-76.01,36.73V28.04h-41.09v241.83h41.09v-98.18c10.91-33.46,37.82-48,62.55-48,21.09,0,40.01,13.45,40.01,37.82v108.37h41.82v-115.64c0-42.54-28.73-70.18-68.36-70.18Z"/><path class="cls-1" d="m1508.88,3.31c-16.36,0-28,10.91-28,28.37,0,16,11.64,27.63,28.37,27.63s27.63-10.91,27.63-28.36c0-16-11.64-27.64-28-27.64Z"/><rect class="cls-1" x="1489.24" y="88.04" width="41.09" height="181.83"/><path class="cls-1" d="m1586.05,88.04h-25.45v40.37h25.45v141.46h41.09v-141.46h26.18v-40.37h-25.45c2.18-22.91,11.27-30.18,38.18-31.64V20.76c-55.27,1.1-80,16.73-80,67.28Z"/><path class="cls-1" d="m1847.7,88.04c-24.73,46.91-49.1,93.82-73.83,140.37-21.82-46.55-43.28-93.46-64.72-140.37h-42.91l86.91,178.18-22.05,41.66-17.16,32.41h42.16l17.1-32.41,115.95-219.84h-41.46Z"/><path class="cls-1" d="m446.38,168.14c-.04-.71-.25-3.24-.32-3.85-1.83-16.25-9.69-29.13-21.79-36.88l-29.91-19.92s-.02-.02-.04-.03l-55.96-37.28c-2.21-1.59-4.48-3.11-6.81-4.54l-21.97-14.63c-2.8-2.04-5.7-3.96-8.67-5.78l-20.82-13.87v.02C251.69,10.8,215.93,0,175.29,0,174.5,0,172.14,0,171.79,0,156.77,0,142.43,1.57,128.89,4.58t-.02,0c-32.45,6.76-60.19,20.93-81.66,41.93C16.32,76.74,0,119.46,0,170.05v3.5c0,50.59,16.32,93.31,47.21,123.52,21.47,21.01,49.21,35.18,81.66,41.93.01,0,.02,0,.02,0,13.54,3.01,27.88,4.58,42.89,4.58.35,0,1.13,0,1.13,0,.79,0,1.58,0,2.37,0,40.65,0,76.39-10.79,104.81-31.38l20.82-13.87c2.97-1.81,5.87-3.73,8.67-5.77l21.97-14.63c2.33-1.43,4.6-2.95,6.81-4.55l55.96-37.28s.03-.02.04-.02l29.91-19.93c15.85-10.16,20.22-23.2,21.79-36.87.07-.61.28-3.14.32-3.85.07-1.2.07-6.06,0-7.32Zm-159.5,132.07c-20.1,9.76-43.42,14.9-69.11,15.11-11.77-.07-23.03-1.1-33.7-3.06-27.87-5.5-52.53-18.25-71.36-37.22-25.84-26.03-39.69-61.52-40.12-102.78-.01-.32,0-.63,0-.95.43-41.25,14.28-76.74,40.12-102.77,18.54-18.68,42.71-31.32,70.04-36.96.4-.09.79-.16,1.19-.23,10.71-1.98,22.01-3.02,33.83-3.09,25.69.21,49.01,5.35,69.11,15.11,2.87,2.47,5.66,5.06,8.34,7.77-10.16-2.28-20.94-3.44-32.25-3.44h-2.52c-10.75,0-21.03,1.12-30.73,3.27-23.54,4.86-43.66,15.12-59.23,30.34-22.32,21.84-34.12,52.68-34.12,89.22,0,.44,0,2.09,0,2.51,0,36.54,11.8,67.38,34.12,89.22,15.57,15.23,35.7,25.49,59.23,30.34,9.7,2.15,19.98,3.27,30.73,3.27h2.52c11.32,0,22.1-1.15,32.26-3.44-2.68,2.71-5.48,5.3-8.35,7.78Zm-14.13-127.65c0,37.65,20.55,64.37,54.01,72.79-3.25,7.66-7.07,14.96-11.45,21.86-2.97.24-6,.38-9.08.4-8.84-.03-17.25-.87-25.16-2.5-43.13-9.5-71.71-45.18-72.1-93.31.39-48.25,29.12-84,72.44-93.39,7.81-1.58,16.1-2.39,24.82-2.42,3.08.02,6.11.16,9.08.39,4.38,6.9,8.2,14.21,11.45,21.87-33.47,8.41-54.01,35.15-54.01,72.79v1.52Z"/></g></svg>